<?xml version="1.0" standalone="no"?>
<!DOCTYPE svg PUBLIC "-//W3C//DTD SVG 20010904//EN"
 "http://www.w3.org/TR/2001/REC-SVG-20010904/DTD/svg10.dtd">
<svg version="1.0" xmlns="http://www.w3.org/2000/svg"
 width="225.000000pt" height="225.000000pt" viewBox="0 0 225.000000 225.000000"
 preserveAspectRatio="xMidYMid meet">
<metadata>
Created by potrace 1.14, written by Peter Selinger 2001-2017
</metadata>
<g transform="translate(0.000000,225.000000) scale(0.100000,-0.100000)"
fill="#000000" stroke="none">
<path d="M995 2243 c-129 -17 -287 -68 -395 -126 -77 -41 -198 -126 -216 -151
-8 -11 -14 -17 -14 -13 0 9 -60 -54 -108 -113 -21 -25 -39 -47 -42 -50 -13
-12 -67 -101 -96 -156 -33 -64 -77 -186 -95 -264 -6 -25 -13 -54 -16 -65 -9
-35 -11 -304 -3 -343 5 -20 11 -53 14 -72 5 -35 39 -148 55 -185 45 -105 107
-216 124 -223 4 -2 7 -9 7 -15 1 -14 46 -68 128 -150 58 -59 201 -167 221
-167 6 0 11 -4 11 -8 0 -19 192 -96 309 -123 126 -29 410 -26 528 6 113 31
211 70 267 105 26 17 49 30 52 30 16 0 176 130 227 185 15 17 47 55 70 85 23
30 44 57 47 60 23 23 99 181 128 265 45 132 51 181 48 385 -2 186 -4 200 -34
300 -9 30 -17 57 -17 60 -8 29 -77 174 -85 180 -4 3 -10 15 -14 28 -4 12 -12
22 -17 22 -5 0 -9 6 -9 13 0 7 -8 22 -18 33 -10 10 -25 30 -35 44 -37 54 -166
174 -247 229 -75 52 -121 76 -235 126 -39 17 -126 42 -195 56 -57 11 -292 19
-345 12z"/>
</g>
</svg>
